<?xml version="1.0" encoding="UTF-8"?>
<svg id="_图层_2" data-name="图层 2" xmlns="http://www.w3.org/2000/svg" viewBox="0 0 221.4 245.55">
  <g id="_图层_1-2" data-name=" 图层 1">
    <g>
      <path d="M55.2,121.55c0,31.1,15.3,44.8,36.7,52.7v-37h0c0-15.7,8.4-30.3,21.9-38.1l34.5-19.9c-9.9-8.7-22.8-13.9-37-13.9-31,0-56.2,25.1-56.2,56.2h.1Z"/>
      <path d="M205,49.35h0L127.1,4.35c-10.1-5.8-22.7-5.8-32.8,0L16.4,49.35C6.3,55.15,0,66.05,0,77.75v90c0,11.7,6.3,22.5,16.4,28.4l77.9,45c5.1,2.9,10.7,4.4,16.4,4.4s11.3-1.5,16.4-4.4l5.8-3.4,63.2-36.5,8.9-5.1c10.1-5.8,16.4-16.7,16.4-28.4v-90c0-11.7-6.3-22.5-16.4-28.4ZM189.7,66.05l-72.1,41.6c-10.1,5.8-16.4,16.7-16.4,28.4v83.2c0,1.5.2,2.9.5,4.3l-76.1-43.9v.2c-4.2-2.5-6.9-7.2-6.9-12.2v-90c0-5,2.7-9.7,7-12.2L103.6,20.45c2.2-1.2,4.6-1.9,7-1.9s4.9.6,7,1.9l76.1,43.9c-1.4.5-2.7,1-4,1.7Z"/>
    </g>
  </g>
</svg>